<svg width="1440" height="161" viewBox="0 0 1440 161" fill="none" xmlns="http://www.w3.org/2000/svg">
<path id="Vector 2" d="M-19 80.4896C2.25523 106.489 56.3043 158.187 102.458 156.979C148.613 155.771 206.373 105.483 229.484 80.4896C253.269 54.9931 311.974 3.99999 356.509 3.99999C401.044 3.99999 458.737 54.9931 482.016 80.4896C506.477 105.986 566.126 156.979 609.042 156.979C651.957 156.979 711.606 105.986 736.067 80.4896C759.178 54.9931 816.533 3.99999 861.068 3.99999C905.603 3.99999 963.295 54.9931 986.575 80.4896C1010.19 105.986 1068.56 156.979 1113.09 156.979C1157.63 156.979 1215.32 105.986 1238.6 80.4896C1263.06 54.9931 1322.71 3.99999 1365.63 3.99999C1419.27 3.99999 1463.81 53.8189 1480 80.4896" stroke="black" stroke-width="8"/>
</svg>
