<svg width="1440" height="161" viewBox="0 0 1440 161" fill="none" xmlns="http://www.w3.org/2000/svg">
<path d="M-19 80.5104C2.25523 54.5106 56.3043 2.81307 102.458 4.0208C148.613 5.22853 206.373 55.5171 229.484 80.5104C253.269 106.007 311.974 157 356.509 157C401.044 157 458.737 106.007 482.016 80.5104C506.477 55.0139 566.126 4.0208 609.042 4.0208C651.957 4.0208 711.606 55.0139 736.067 80.5104C759.178 106.007 816.533 157 861.068 157C905.603 157 963.295 106.007 986.575 80.5104C1010.19 55.0139 1068.56 4.0208 1113.09 4.0208C1157.63 4.0208 1215.32 55.0139 1238.6 80.5104C1263.06 106.007 1322.71 157 1365.63 157C1419.27 157 1463.81 107.181 1480 80.5104" stroke="black" stroke-width="8"/>
</svg>
